<?xml version="1.0" encoding="utf-8"?>
<!-- Generator: Adobe Illustrator 16.0.3, SVG Export Plug-In . SVG Version: 6.00 Build 0)  -->
<!DOCTYPE svg PUBLIC "-//W3C//DTD SVG 1.1//EN" "http://www.w3.org/Graphics/SVG/1.1/DTD/svg11.dtd">
<svg version="1.1" id="Layer_1" xmlns="http://www.w3.org/2000/svg" xmlns:xlink="http://www.w3.org/1999/xlink" x="0px" y="0px"
	 width="800px" height="300px" viewBox="0 0 800 300" enable-background="new 0 0 800 300" xml:space="preserve">
<g id="keyup" xmlns:rdf="http://www.w3.org/1999/02/22-rdf-syntax-ns#" xmlns:cc="http://creativecommons.org/ns#" xmlns:dc="http://purl.org/dc/elements/1.1/" xmlns:svg="http://www.w3.org/2000/svg" xmlns:inkscape="http://www.inkscape.org/namespaces/inkscape" xmlns:sodipodi="http://sodipodi.sourceforge.net/DTD/sodipodi-0.dtd" xmlns:ns1="http://sozi.baierouge.fr">
	<g id="layer1" transform="translate(-225.08 -670.45)">
		<path id="path2830" d="M442.847,931.19c-57.194-4.633-103.052-13.561-129.056-25.119c-20.647-9.18-25.497-14.928-26.126-30.969
			c-1.141-29.053-0.414-32.01,10.176-41.385c5.583-4.941,10.15-9.922,10.15-11.066c0-1.146-3.916-3.448-8.701-5.116
			c-7.45-2.599-8.699-4.504-8.699-13.269c0-7.598-1.79-11.407-6.948-14.787c-10.219-6.695-11.365-15.233-3.147-23.451
			c3.812-3.813,9.275-6.879,12.138-6.814c3.848,0.086,3.125,1.245-2.768,4.442c-4.387,2.38-7.976,5.565-7.976,7.079
			c0,1.515,3.589,3.539,7.976,4.5c4.387,0.96,9.623,2.256,11.636,2.878c5.941,1.835,0.997-13.938-6.143-19.593
			c-19.048-15.086-19.346-15.94-9.557-27.322c5.701-6.627,9.691-8.128,24.45-9.196c15.95-1.153,18.349-0.563,25.089,6.177
			c8.996,8.996,9.375,14.494,1.541,22.328l-5.912,5.912l8.58,2.992c8.972,3.127,13.323,9.609,10.028,14.939
			c-1.245,2.016-0.129,2.438,3.127,1.188c2.785-1.068,6.915-1.943,9.177-1.943c4.833,0,5.903-21.752,1.213-24.651
			c-5.2-3.214-3.296-18.435,2.709-21.648c7.24-3.875,30.844-3.875,38.084,0c6.834,3.657,7.272,13.554,0.912,20.583
			c-3.757,4.151-4.287,8.489-2.643,21.646l2.056,16.455l19.799-1.84c31.017-2.883,33.517-5.084,24.201-21.313
			c-6.871-11.972-3.277-26.54,10.332-41.874c10.945-12.333,11.588-12.609,29.255-12.609c17.406,0,18.422,0.414,27.883,11.357
			c8.216,9.505,9.819,13.631,9.819,25.275c0,11.432-1.608,15.75-9.001,24.17l-9.001,10.25h14.801
			c14.473,0,14.801-0.189,14.801-8.598c0-8.865,4.821-13.076,20.131-17.588l7.42-2.188L555,747.446
			c-15.788-5.852-18.292-23.84-4.073-29.247c12.414-4.72,40.535-3.759,48.817,1.667c6.063,3.972,7.106,6.355,5.535,12.622
			c-2.579,10.274-6.813,15.007-13.428,15.007c-8.889,0-6.182,4.016,6.218,9.223c9.03,3.793,11.997,6.848,13.383,13.776l1.78,8.901
			h41.041c36.016,0,45.463,1.09,77.215,8.903c44.967,11.065,60.943,13.939,95.033,17.089c26.315,2.433,27.118,2.323,34.074-4.632
			c8.361-8.36,8.721-9.76,2.494-9.76c-9.177,0-34.669-9.021-41.453-14.667c-11.363-9.461-10.399-19.096,2.873-28.711
			c16.474-11.934,36.474-16.048,78.014-16.057c37.844-0.006,51.627,2.834,65.07,13.41c14.946,11.756,6.604,31.064-17.286,40.002
			c-8.854,3.313-18.66,6.022-21.794,6.022c-6.696,0-7.274,2.453-1.634,6.931c7.268,5.766,8.259,15.372,2.183,21.117
			c-3.087,2.918-6.086,7.855-6.665,10.977c-1.554,8.355-11.101,9.753-56.125,8.215c-43.127-1.477-88.232-7.534-145.006-19.48
			c-39.408-8.292-40.064-8.377-37.952-4.961c-5.813,3.138-4.009,3.646-11.353,4.663c-3.188-0.898-8.409,0.344-11.602,2.763
			c-5.174,3.922-5.252,4.406-0.726,4.488c2.791,0.051,5.075-1.302,5.075-3.003c0-3.964,11.337-0.624,18.126,5.339
			c2.791,2.45,5.077,6.904,5.077,9.897c0,2.991,1.957,6.19,4.352,7.108c7.085,2.719,6.037,41.623-1.375,51.045
			c-10.213,12.982-68.069,28.338-127.682,33.888c-30.662,2.853-92.398,3.474-120.354,1.207h-0.007L442.847,931.19L442.847,931.19z
			 M605.255,920.537c12.76-2.298,32.663-7.063,44.229-10.589l21.022-6.409l-0.288-12.043c-0.249-10.321-0.622-11.007-2.61-4.793
			c-2.242,7.001-2.332,7.022-2.611,0.687c-0.284-6.451-0.478-6.485-11.164-2.018c-25.129,10.506-137.823,22.492-164.467,17.493
			c-8.444-1.583-10.266-3.188-10.266-9.043c0-8.813-2.711-8.937-13.309-0.595c-6.518,5.131-12.024,6.521-25.767,6.516
			c-23.83-0.01-78.257-6.395-97.689-11.454c-8.761-2.28-17.79-4.551-20.061-5.043c-5.195-1.123-7.339,13.794-2.772,19.298
			c4.178,5.034,41.548,14.896,71.145,18.779c12.76,1.674,27.116,3.588,31.9,4.256C442.905,928.414,582.971,924.55,605.255,920.537
			L605.255,920.537L605.255,920.537z M320.05,889.612c0-3.986,0.658-5.619,1.462-3.625c0.804,1.994,0.804,5.256,0,7.251
			C320.708,895.23,320.05,893.598,320.05,889.612z M313.792,889.612c0-6.381-1.305-11.602-2.9-11.602
			c-3.209,0-4.036,18.198-0.967,21.269C313.311,902.667,313.792,901.466,313.792,889.612L313.792,889.612z M584.95,894.206
			c27.333-2.252,60.499-9.76,79.028-17.893c8.375-3.676,15.226-7.146,15.226-7.713c0-0.563-4.569-0.492-10.151,0.158
			c-5.583,0.651-10.148-0.004-10.148-1.457c0-3.763-33.6,0.638-49.302,6.457c-7.177,2.655-25.042,6.279-39.698,8.052
			c-21.525,2.6-26.909,4.217-28.004,8.409c-1.494,5.713-11.994,7.076-15.151,1.968c-1.097-1.772-0.194-4.364,2.003-5.757
			c2.491-1.578-3.958-2.549-17.123-2.575c-19.269-0.04-21.333,0.526-23.549,6.479c-2.337,6.276-1.699,6.581,16.77,7.976
			c10.56,0.8,28.334,0.576,39.5-0.49C555.515,896.753,573.785,895.125,584.95,894.206L584.95,894.206L584.95,894.206z
			 M678.915,893.237c0.563,9.895,6.095,4.906,6.432-5.801c0.345-10.824,0.354-10.834,2.56-2.174
			c2.72,10.691,3.594,2.738,1.078-9.834c-1.461-7.31-2.608-8.459-5.803-5.811c-2.188,1.814-4.069,6.078-4.183,9.473
			c-0.198,6.02-0.265,6.025-2.696,0.367c-1.818-4.238-2.47-1.896-2.407,8.701c0.067,11.438,0.575,12.97,2.407,7.251
			C677.852,890.579,678.722,889.853,678.915,893.237L678.915,893.237z M455.671,890.803c22.639-19.051-0.147-57.927-27.79-47.42
			c-20.104,7.646-25.136,31.228-9.912,46.449C429.08,900.946,443.187,901.307,455.671,890.803L455.671,890.803z M304.233,877.286
			c-0.691-3.589-1.257-0.652-1.257,6.523c0,7.18,0.565,10.115,1.257,6.524C304.925,886.749,304.925,880.875,304.233,877.286z
			 M412.39,890.192c0-1.275-1.195-3.559-2.654-5.075c-1.461-1.517-3.092-6.019-3.625-10.007c-1.151-8.607-9.544-8.479-17.759,0.273
			c-3.991,4.252-9.225,5.525-22.667,5.525c-18.869,0-28.698-3.511-28.698-10.252c0-2.337,1.088-4.249,2.417-4.249
			c1.329,0,2.504-1.63,2.61-3.624c0.108-1.995,0.88-13.086,1.718-24.652c0.838-11.564,0.641-21.008-0.436-20.984
			c-12.017,0.242-14.751,3.721-15.599,19.838c-0.776,14.761-1.543,16.471-7.783,17.354c-8.064,1.142-11.821-3.546-11.884-14.82
			c-0.043-7.825-0.232-7.918-7.019-3.473c-8.382,5.491-12.072,17.639-7.158,23.562c7.315,8.813,28.719,18.696,55.033,25.414
			C375.509,891.812,412.39,894.818,412.39,890.192L412.39,890.192z M487.793,880.74c0-1.5-1.306-2.729-2.9-2.729
			c-1.595,0-2.9,2.037-2.9,4.523s1.305,3.714,2.9,2.729C486.487,884.276,487.793,882.241,487.793,880.74L487.793,880.74z
			 M558.846,878.01c4.959-2.133,5.065-2.521,0.725-2.695c-3.073-0.124-5.076-2.49-5.076-6.006c0-5.451-1.932-5.801-32.239-5.801
			c-32.018,0-32.228,0.047-30.491,6.525c0.962,3.589,1.767,7.503,1.789,8.699C493.608,881.736,551.677,881.091,558.846,878.01
			L558.846,878.01L558.846,878.01z M383.951,872.391c3.929-3.094,10.508-6.467,14.618-7.496c4.11-1.031,8.165-4.522,9.009-7.758
			c1.363-5.207,0.526-5.678-7.338-4.104c-4.881,0.979-10.671,1.775-12.864,1.775c-2.194,0-3.988,2.468-3.988,5.484
			c0,4.879-2.08,5.422-18.748,4.894c-13.061-0.413-19.184,0.538-20.181,3.137C340.581,878.43,372.143,881.678,383.951,872.391
			L383.951,872.391z M350.815,872.714c-2.762-1.095,3.719-2.23,14.402-2.529c12.875-0.357,17.99,0.367,15.171,2.149
			C375.502,875.425,358.217,875.647,350.815,872.714L350.815,872.714z M608.941,867.478c3.357-3.357,2.647-3.968-4.601-3.968
			c-6.188,0-9,1.646-10.117,5.92c-1.297,4.955-0.546,5.602,4.602,3.969C602.207,872.324,606.761,869.662,608.941,867.478
			L608.941,867.478z M578.418,865.772c-4.691-2.266-8.359-2.266-13.05,0c-5.729,2.764-4.934,3.146,6.525,3.146
			C583.352,868.919,584.147,868.536,578.418,865.772z M682.822,858.268c2.791-2.396,4.991-6.438,4.892-8.982
			c-0.106-2.729-1.358-1.683-3.052,2.553c-1.698,4.262-3.688,5.922-4.891,4.079c-1.412-2.161-4.66-1.96-10.728,0.665
			c-7.836,3.393-8.034,3.779-2.003,3.896c4.302,0.084,5.956,1.328,4.627,3.479C669.227,867.912,675.06,864.934,682.822,858.268
			L682.822,858.268z M374.683,835.621v-24.313h-11.601H351.48v24.438c0,26.255,1.241,28.144,16.676,25.363
			C374.311,860.003,374.683,858.553,374.683,835.621z M355.055,822.909c0-5.581,0.596-7.866,1.326-5.074
			c0.729,2.791,0.729,7.36,0,10.151C355.651,830.776,355.055,828.491,355.055,822.909z M481.987,851.621
			c0-9.657-1.854-13.744-9.861-21.752c-8.231-8.229-11.973-9.86-22.646-9.86c-7.032,0-15.075,1.673-17.873,3.718
			c-4.395,3.216-3.537,3.572,6.32,2.633c6.881-0.656,15.059,0.802,20.611,3.673c9.755,5.044,20.519,19.933,20.537,28.403
			c0.007,2.789,0.664,5.072,1.46,5.072C481.333,863.51,481.987,858.159,481.987,851.621L481.987,851.621z M653.095,856.579
			c24.016-5.039,35.061-14.256,29.18-24.346c-2.598-4.455-2.909-4.338-2.988,1.102c-0.206,14.167-12.979,17.85-52.291,15.073
			c-3.987-0.282-35.635-0.263-70.327,0.044c-57.93,0.512-63.079,0.973-63.077,5.633c0.002,4.708,5.406,5.061,74.68,4.852
			C609.341,858.809,647.512,857.749,653.095,856.579L653.095,856.579L653.095,856.579z M407.311,847.149
			c2.79-0.786,5.075-2.46,5.075-3.717c0-1.258-6.525-0.998-14.501,0.58c-7.975,1.574-14.501,4.102-14.501,5.61
			C383.384,852.11,393.354,851.078,407.311,847.149L407.311,847.149z M324.816,835.235c-0.741-11.547-1.822-13.775-6.684-13.775
			c-4.771,0-5.867,2.059-6.175,11.602c-0.454,14.041,0.498,15.953,7.955,15.953C325.008,849.012,325.595,847.363,324.816,835.235
			L324.816,835.235z M565.534,841.035c-0.845-4.366-4.822-5.142-28.489-5.546c-32.288-0.553-43.458,1.152-43.458,6.635
			c0,3.172,7.458,3.988,36.464,3.988C563.22,846.112,566.427,845.653,565.534,841.035z M611.438,842.332
			c2.291-2.29-11.569-5.709-18.051-4.452c-2.786,0.538-5.634,2.689-6.33,4.78c-0.948,2.843,1.746,3.499,10.688,2.604
			C604.321,844.608,610.483,843.288,611.438,842.332L611.438,842.332z M667.369,843.411c2.708-1.714-3.537-2.939-18.199-3.581
			c-18.416-0.8-21.448-0.335-17.342,2.655C637.556,846.659,661.261,847.277,667.369,843.411L667.369,843.411z M401.828,839.219
			c2.775-0.408,7.574-4.896,10.662-9.977l5.616-9.235l-7.932,0.017c-4.364,0.01-12.827,1.375-18.808,3.036
			c-8.516,2.363-10.875,4.46-10.875,9.65c0,8.651,2.374,10.74,10.027,8.817C393.962,840.669,399.053,839.628,401.828,839.219
			L401.828,839.219L401.828,839.219z M621.85,835.645c-1.509-7.891-14.813-15.635-26.858-15.635c-4.653,0-5.876,1.534-5.168,6.486
			c0.717,5.021,3.421,6.89,11.949,8.269c6.063,0.979,12.522,3.281,14.355,5.113C621.46,845.212,623.403,843.773,621.85,835.645
			L621.85,835.645z M584.947,831.61c0-2.553-2.999-4.592-7.25-4.936l-7.25-0.584l7.25,2.472l7.25,2.468l-7.976,0.291
			c-4.387,0.159-7.975,1.68-7.975,3.381s3.588,2.68,7.975,2.174C581.72,836.331,584.947,834.199,584.947,831.61L584.947,831.61z
			 M567.398,826.604c2.53-6.596-1.874-8.406-19.396-7.971c-8.391,0.209-25.371,0.604-37.73,0.877
			c-16.253,0.36-22.476,1.542-22.476,4.268c0,7.958,6.444,9.259,41.648,8.395C559.508,831.434,565.906,830.498,567.398,826.604
			L567.398,826.604z M669.546,830.16c0.571-1.733-6.626-2.899-17.896-2.899c-18.146,0-21.233,1.002-16.789,5.442
			C637.922,835.764,668.439,833.528,669.546,830.16L669.546,830.16z M868.239,830.391c0.506-1.469-10.174-3.102-23.732-3.631
			c-13.556-0.527-33.134-2.32-43.5-3.981c-10.367-1.661-22.438-3.583-26.825-4.272c-4.388-0.689-7.977-0.005-7.977,1.519
			c0,1.523,3.589,3.531,7.977,4.461c4.387,0.927,11.237,2.438,15.227,3.354c8.263,1.9,58.4,5.797,70.134,5.448
			c4.28-0.128,8.196-1.431,8.701-2.896h-0.004V830.391z M915.323,832.75c2.522-0.966,4.588-3.717,4.588-6.108
			c0-2.775-1.66-3.713-4.588-2.59c-2.521,0.967-12.312,1.761-21.75,1.761c-13.323,0-17.164,0.975-17.164,4.351
			c0,3.378,3.841,4.352,17.164,4.352C903.013,834.51,912.802,833.719,915.323,832.75L915.323,832.75z M634.24,820.01
			c4.785-3.17,7.646-5.771,6.354-5.782c-1.291-0.011-11.133-1.382-21.873-3.05c-12.4-1.924-22.13-2.037-26.659-0.312l-7.128,2.717
			l8.699,1.964c4.785,1.08,13.268,3.704,18.852,5.831C625.852,826.469,624.341,826.566,634.24,820.01L634.24,820.01z
			 M642.94,822.909c-0.985-1.593-2.366-2.898-3.071-2.898c-0.703,0-1.278,1.306-1.278,2.898c0,1.598,1.383,2.9,3.071,2.9
			C643.352,825.809,643.926,824.507,642.94,822.909z M476.184,818.559c-1.987-2.392-5.006-4.351-6.71-4.351
			s-0.565,1.917,2.531,4.257C479.28,823.969,480.699,824.001,476.184,818.559L476.184,818.559L476.184,818.559z M581.313,820.989
			c-1.993-0.805-5.257-0.805-7.25,0c-1.994,0.805-0.362,1.463,3.625,1.463S583.307,821.794,581.313,820.989z M763.296,820.18
			c0-1.5-1.305-3.535-2.897-4.521c-1.6-0.986-2.9,0.242-2.9,2.729s1.303,4.521,2.9,4.521
			C761.99,822.909,763.296,821.68,763.296,820.18L763.296,820.18z M859.402,817.122c-4.803-4.076-11.048-5.813-20.907-5.813
			c-20.537,0-69.072-8.077-105.651-17.582c-42.822-11.129-114.01-14.881-129.436-6.82c-12.828,6.703-41.351,6.857-54.504,0.293
			c-6.98-3.482-17.201-4.895-35.442-4.895c-22.491,0-26.076-0.711-29.253-5.799c-4.614-7.389-14.346-7.439-20.979-0.109
			c-7.011,7.748-18.73,10.926-48.675,13.203c-13.957,1.06-25.375,2.824-25.375,3.918c0,1.096,5.081,1.507,11.291,0.915
			c13.502-1.287,49.876,3.987,52.268,7.581c0.931,1.398,5.781,3.939,10.776,5.647c8.212,2.808,9.382,2.449,12.197-3.729
			c4.618-10.135,22.216-13.814,55.404-11.588c42.611,2.858,57.331,2.934,87.173,0.441c30.761-2.568,84.673,3.004,120.354,12.44
			c37.376,9.883,76.782,16.159,107.308,17.086l20.301,0.617L859.402,817.122L859.402,817.122z M413.105,815.214
			c25.154-2.73,19.999-7.154-7.218-6.197c-20.735,0.73-24.033,1.565-24.94,6.312c-0.889,4.649,0.193,5.187,7.218,3.582
			C392.71,817.874,403.934,816.21,413.105,815.214L413.105,815.214z M334.076,811.889c0-2.871,1.217-6.459,2.705-7.976
			c1.677-1.708,1.401-4.45-0.725-7.214c-2.705-3.516-7.414-4.129-22.281-2.9c-23.289,1.926-18.746,6.592,6.419,6.592
			c11.258,0,16.059,0.918,13.5,2.584c-2.182,1.42-10.814,2.349-19.182,2.063c-8.367-0.287-16.102,0.369-17.189,1.455
			c-4.1,4.1,9.732,10.436,22.978,10.523C331.666,817.094,334.076,816.196,334.076,811.889L334.076,811.889z M564.07,810.624
			c-20.811-6.226-58.183-6.699-72.031-0.912c-5.532,2.311-10.056,4.594-10.055,5.075c0.001,0.479,22.259,0.874,49.46,0.874h49.459
			l-16.836-5.037L564.07,810.624L564.07,810.624z M666.141,814.21c0.986-1.596-0.896-2.9-4.181-2.9c-3.283,0-5.971,1.305-5.971,2.9
			c0,1.594,1.88,2.9,4.179,2.9S665.154,815.805,666.141,814.21z M642.214,809.389c-1.994-0.805-5.258-0.805-7.252,0
			c-1.993,0.805-0.363,1.461,3.625,1.461C642.576,810.85,644.207,810.194,642.214,809.389z M707.045,803.396
			c-0.965-0.966-1.65,0.749-1.521,3.806c0.139,3.378,0.823,4.066,1.752,1.752C708.111,806.86,708.008,804.358,707.045,803.396
			L707.045,803.396z M373.23,805.719c3.876-1.525,0.849-2.181-9.124-1.972c-8.209,0.17-14.331,1.289-13.604,2.485
			C352.183,809.005,365.658,808.699,373.23,805.719L373.23,805.719z M443.025,801.964c-7.764-4.346-55.829-4.324-60.183,0.027
			c-3.043,3.042-0.792,3.428,12.178,2.085c8.751-0.905,22.437-0.543,30.414,0.806C442.08,807.695,450.709,806.262,443.025,801.964
			L443.025,801.964L443.025,801.964z M578.902,805.891c1.928-3.121-25.12-8.444-51.241-10.084
			c-15.336-0.965-19.576-0.36-19.576,2.787c0,3.058,5.359,4.064,22.476,4.219c12.362,0.111,25.085,1.324,28.276,2.697
			C566.55,808.823,576.969,809.021,578.902,805.891L578.902,805.891z M699.494,804.401c0-5.078-31.398-8.305-70.625-7.26
			c-22.272,0.594-27.979,1.611-27.979,4.984c0,3.499,4.187,3.977,23.926,2.742c13.162-0.824,33.063-0.568,44.228,0.566
			c11.166,1.135,22.585,2.269,25.376,2.52S699.494,806.605,699.494,804.401L699.494,804.401z M921.869,804.51
			c0.968-0.97,0.146-3.701-1.821-6.076c-4.655-5.608-42.055-5.725-52.349-0.161c-7.486,4.045-6.807,4.827,7.25,8.352
			C882.409,808.494,919.559,806.82,921.869,804.51L921.869,804.51L921.869,804.51z M360.209,796.611c0-1.688-1.305-2.265-2.9-1.279
			c-1.595,0.986-2.9,2.368-2.9,3.072s1.305,1.278,2.9,1.278C358.903,799.682,360.209,798.3,360.209,796.611z M298.157,783.068
			c-0.964-0.963-1.649,0.75-1.522,3.807c0.139,3.38,0.825,4.066,1.751,1.753C299.224,786.533,299.122,784.031,298.157,783.068
			L298.157,783.068z M306.858,783.068c-2.948-2.949-5.381,1.489-2.961,5.405c1.828,2.955,2.51,2.959,3.493,0.011
			C308.06,786.469,307.821,784.031,306.858,783.068L306.858,783.068L306.858,783.068z M322.506,788.083c0-1.596-1.382-2.9-3.071-2.9
			s-2.265,1.306-1.279,2.9c0.986,1.594,2.368,2.9,3.071,2.9C321.931,790.983,322.506,789.677,322.506,788.083z M372.881,787.834
			c16.327-4.534,9.226-8.925-12.738-7.876c-24.099,1.15-27.41,9.396-4.286,10.672C359.048,790.805,366.708,789.548,372.881,787.834z
			 M291.138,781.655c-2.082-2.082-3.432-2.252-3.432-0.436c0,3.871,3.429,7.302,5.364,5.365
			C293.895,785.76,293.025,783.542,291.138,781.655L291.138,781.655z M393.971,777.207c-0.988-5.981-1.812-13.245-1.83-16.143
			c-0.023-4.03-1.906-5.054-8.006-4.351c-11.226,1.291-11.935,11.039-1.614,22.184C393.393,790.637,396.124,790.232,393.971,777.207
			L393.971,777.207z M571.917,783.732c0-2.392-1.306-4.351-2.9-4.351c-1.595,0-2.9,1.957-2.9,4.351c0,2.393,1.305,4.351,2.9,4.351
			C570.611,788.083,571.917,786.125,571.917,783.732z M578.249,781.654c-2.081-2.082-3.432-2.252-3.432-0.435
			c0,3.871,3.43,7.301,5.366,5.363C581.005,785.76,580.136,783.542,578.249,781.654L578.249,781.654z M585.269,780.167
			c-0.963-0.964-1.649,0.75-1.523,3.807c0.139,3.379,0.826,4.065,1.752,1.752C586.336,783.632,586.232,781.132,585.269,780.167
			L585.269,780.167z M553.368,777.266c-0.964-0.963-1.65,0.75-1.523,3.807c0.139,3.378,0.826,4.064,1.752,1.751
			C554.435,780.732,554.332,778.231,553.368,777.266L553.368,777.266z M563.216,782.281c0-1.594-1.304-2.899-2.899-2.899
			c-1.594,0-2.899,1.306-2.899,2.899c0,1.595,1.304,2.899,2.899,2.899C561.912,785.18,563.216,783.876,563.216,782.281z
			 M595.118,782.281c0-1.594-1.382-2.899-3.071-2.899c-1.69,0-2.265,1.306-1.28,2.899c0.987,1.595,2.368,2.899,3.072,2.899
			C594.542,785.18,595.118,783.876,595.118,782.281z M897.454,783.135c-3.589-0.69-9.462-0.69-13.05,0
			c-3.59,0.691-0.651,1.258,6.522,1.258C898.107,784.391,901.044,783.826,897.454,783.135z M854.679,777.728
			c-18.179-5.058-23.536-4.951-10.149,0.204c5.582,2.148,13.414,3.892,17.399,3.869
			C866.271,781.779,863.364,780.145,854.679,777.728L854.679,777.728z M338.265,776.552c9.908-3.767,9.428-10.41-1.015-14.051
			c-9.357-3.264-11.847-2.082-11.847,5.619c0,2.846-2.284,6.502-5.074,8.128c-4.361,2.54-3.979,2.968,2.711,3.044
			C327.322,779.343,334.173,778.108,338.265,776.552L338.265,776.552z M502.25,764.409c-2.18-16.991-9.98-25.63-23.141-25.63
			c-13.083,0-20.666,8.386-22.392,24.765c-1.249,11.853-0.841,13.747,2.315,10.764c2.107-1.993,5.24-7.866,6.96-13.051
			c2.513-7.567,4.509-9.272,10.119-8.64c8.955,1.008,9.806,1.99,10.507,12.129c0.788,11.375,3.235,14.636,10.991,14.636
			C503.823,779.382,504.068,778.591,502.25,764.409L502.25,764.409z M932.314,774.723c28.306-5.195,38.723-11.164,35.764-20.488
			c-1.878-5.918-16.063-13.424-31.811-16.835c-17.399-3.769-64.93-2.022-83.455,3.063c-19.111,5.248-35.526,14.437-33.023,18.484
			c4.271,6.912,27.505,13.93,53.308,16.102c6.943,0.584,13.359,1.797,14.261,2.697C890.212,780.604,906.102,779.535,932.314,774.723
			L932.314,774.723z M586.573,773.951c9.691-0.483,19.677-7.729,15.78-11.448c-1.595-1.523-5.675-3.606-9.066-4.629
			c-4.647-1.4-6.543-0.408-7.704,4.025c-0.846,3.234-3.867,5.881-6.713,5.881c-4.909,0-4.914-0.191-0.114-3.702
			c6.329-4.627,3.445-13.698-4.354-13.698c-7.036,0-10.077,7.412-5.367,13.088c2.917,3.517,2.71,4.313-1.126,4.313
			c-2.772,0-4.706-2.382-4.706-5.799c0-6.768-5.295-7.481-13.112-1.764c-10.214,7.468,3.438,15.998,23.262,14.533
			C576.541,774.514,582.491,774.155,586.573,773.951L586.573,773.951L586.573,773.951z M319.559,766.33
			c0-5.317-1.548-7.251-5.801-7.251c-4.253,0-5.8,1.934-5.8,7.251c0,5.316,1.547,7.25,5.8,7.25
			C318.011,773.58,319.559,771.646,319.559,766.33z M506.662,747.62c-2.339-7.37-12.818-14.615-25.492-17.627
			c-9.211-2.188-9.23-2.227-1.233-2.52c11.999-0.438,25.126,7.526,29.687,18.017c3.566,8.2,4.03,8.472,4.131,2.423
			c0.066-3.992-3.973-10.902-9.747-16.677c-7.964-7.962-12.118-9.86-21.589-9.86c-14.114,0-28.06,10.096-24.993,18.094
			c1.735,4.521,2.545,4.593,8.08,0.717c9.376-6.568,23.183-5.357,31.988,2.803c4.221,3.912,7.674,8.697,7.674,10.633
			c0,1.938,0.772,2.751,1.715,1.809C507.826,754.488,507.727,750.973,506.662,747.62L506.662,747.62L506.662,747.62z
			 M462.322,734.216c2.753-2.884,5.801-4.446,6.773-3.475c0.972,0.973-1.281,3.33-5.005,5.241
			C457.614,739.303,457.536,739.225,462.322,734.216z M299.259,749.109c0-2.332-2.468-3.983-5.601-3.749
			c-3.08,0.232-4.948,1.479-4.149,2.768c0.797,1.291,2.664,1.594,4.149,0.678c1.485-0.918,2.7-0.287,2.7,1.402
			c0,1.688,0.652,3.071,1.451,3.071C298.605,753.279,299.259,751.402,299.259,749.109L299.259,749.109z M307.958,748.928
			c0-2.393-1.304-4.351-2.899-4.351c-1.594,0-2.899,1.958-2.899,4.351s1.304,4.351,2.899,4.351S307.958,751.321,307.958,748.928z
			 M312.61,745.364c-0.962-0.963-1.649,0.749-1.523,3.807c0.139,3.379,0.826,4.065,1.752,1.752
			C313.677,748.829,313.575,746.328,312.61,745.364L312.61,745.364z M321.312,745.364c-0.965-0.963-1.65,0.749-1.524,3.807
			c0.14,3.379,0.827,4.065,1.752,1.752C322.378,748.829,322.274,746.328,321.312,745.364L321.312,745.364z M327.111,745.364
			c-0.964-0.963-1.649,0.749-1.523,3.807c0.139,3.379,0.826,4.065,1.752,1.752C328.178,748.829,328.075,746.328,327.111,745.364
			L327.111,745.364z M383.363,745.857c0-2.487-1.326-3.701-2.948-2.7c-1.621,1.002-2.197,3.036-1.279,4.521
			C381.622,751.701,383.363,750.951,383.363,745.857L383.363,745.857z M566.077,741.69c0-1.596-1.305-2.9-2.9-2.9
			c-1.595,0-2.9,1.305-2.9,2.9c0,1.595,1.305,2.9,2.9,2.9C564.772,744.591,566.077,743.285,566.077,741.69z M574.778,741.69
			c0-1.596-1.305-2.9-2.9-2.9c-1.595,0-2.9,1.305-2.9,2.9c0,1.595,1.305,2.9,2.9,2.9
			C573.473,744.591,574.778,743.285,574.778,741.69z M582.028,741.69c-0.986-1.596-2.368-2.9-3.072-2.9
			c-0.702,0-1.278,1.305-1.278,2.9c0,1.595,1.382,2.9,3.071,2.9S583.014,743.285,582.028,741.69z M330.441,737.188
			c7.861-2.422,2.906-6.773-11.148-9.787c-15.092-3.236-30.178,0.301-30.178,7.077c0,5.331,27.056,7.106,41.328,2.709
			L330.441,737.188L330.441,737.188z M397.515,736.169c2.198-1.393,3.101-3.981,2.004-5.756c-3.376-5.462-33.552-3.033-33.552,2.701
			C365.967,738.072,390.727,740.469,397.515,736.169L397.515,736.169z M595.262,728.419c5.497-6.625-0.972-9.832-19.95-9.886
			c-15.31-0.044-26.634,3.589-26.634,8.545C548.677,733.93,589.707,735.11,595.262,728.419L595.262,728.419z M511.103,720.077
			c-3.662-3.898-10.503-7.933-15.203-8.965c-13.04-2.864-13.122,0.716-0.104,4.616c6.318,1.893,13.229,5.856,15.357,8.81
			c2.128,2.953,4.486,4.752,5.24,3.998C517.146,727.782,514.767,723.975,511.103,720.077L511.103,720.077L511.103,720.077z"/>
	</g>
</g>
<g id="keydown" display="none">
	<g id="layer1_1_" transform="translate(-225.08 -670.45)" display="inline">
		<path id="path2830_1_" d="M442.847,931.19c-57.194-4.633-103.052-13.561-129.056-25.119c-20.647-9.18-25.497-14.928-26.126-30.969
			c-1.141-29.053-0.414-32.01,10.176-41.385c5.583-4.941,10.15-9.922,10.15-11.066c0-1.146-3.916-3.448-8.701-5.116
			c-7.45-2.599-8.699-4.504-8.699-13.269c0-7.598-1.79-11.407-6.948-14.787c-10.219-6.695-11.365-15.233-3.147-23.451
			c3.812-3.813,9.275-6.879,12.138-6.814c3.848,0.086,3.125,1.245-2.768,4.442c-4.387,2.38-7.976,5.565-7.976,7.079
			c0,1.515,3.589,3.539,7.976,4.5c4.387,0.96,9.623,2.256,11.636,2.878c5.941,1.835,0.997-13.938-6.143-19.593
			c-19.048-15.086-19.346-15.94-9.557-27.322c5.701-6.627,9.691-8.128,24.45-9.196c15.95-1.153,18.349-0.563,25.089,6.177
			c8.996,8.996,9.375,14.494,1.541,22.328l-5.912,5.912l8.58,2.992c8.972,3.127,13.323,9.609,10.028,14.939
			c-1.245,2.016-0.129,2.438,3.127,1.188c2.785-1.068,6.915-1.943,9.177-1.943c4.833,0,5.903-21.752,1.213-24.651
			c-5.2-3.214-3.296-18.435,2.709-21.648c7.24-3.875,30.844-3.875,38.084,0c6.834,3.657,7.272,13.554,0.912,20.583
			c-3.757,4.151-4.287,8.489-2.643,21.646l2.056,16.455l19.799-1.84c31.017-2.883,33.517-5.084,24.201-21.313
			c-6.871-11.972-3.277-26.54,10.332-41.874c10.945-12.333,11.588-12.609,29.255-12.609c17.406,0,18.422,0.414,27.883,11.357
			c8.216,9.505,9.819,13.631,9.819,25.275c0,11.432-1.608,15.75-9.001,24.17l-9.001,10.25h14.801
			c14.473,0,14.801-0.189,14.801-8.598c0-8.865,4.821-13.076,20.131-17.588l7.42-2.188L555,747.446
			c-15.788-5.852-18.292-23.84-4.073-29.247c12.414-4.72,40.535-3.759,48.817,1.667c6.063,3.972,7.106,6.355,5.535,12.622
			c-2.579,10.274-6.813,15.007-13.428,15.007c-8.889,0-6.182,4.016,6.218,9.223c9.03,3.793,11.997,6.848,13.383,13.776l1.78,8.901
			h41.041c36.016,0,45.463,1.09,77.215,8.903c44.967,11.065,60.943,27.689,95.033,30.839c26.315,2.433,27.118,2.323,34.074-4.632
			c8.361-8.36,8.721-9.76,2.494-9.76c-9.177,0-34.669-9.021-41.453-14.667c-11.363-9.461-10.399-19.096,2.873-28.711
			c16.474-11.934,36.474-16.048,78.014-16.057c37.844-0.006,51.627,2.834,65.07,13.41c14.946,11.756,6.604,31.064-17.286,40.002
			c-8.854,3.313-18.66,6.022-21.794,6.022c-6.696,0-7.274,2.453-1.634,6.931c7.268,5.766,8.259,15.373,2.183,21.117
			c-3.087,2.918-6.086,7.855-6.665,10.977c-1.554,8.355-11.101,9.753-56.125,8.215c-43.127-1.477-88.232-21.284-145.006-33.23
			c-39.408-8.292-40.064-8.377-37.952-4.961c-5.813,3.138-4.009,3.646-11.353,4.663c-3.188-0.898-8.409,0.344-11.602,2.763
			c-5.174,3.922-5.252,4.406-0.726,4.488c2.791,0.051,5.075-1.302,5.075-3.003c0-3.964,11.337-0.624,18.126,5.339
			c2.791,2.45,5.077,6.904,5.077,9.897c0,2.991,1.957,6.19,4.352,7.108c7.085,2.719,6.037,41.623-1.375,51.045
			c-10.213,12.982-68.069,28.338-127.682,33.888c-30.662,2.853-92.398,3.474-120.354,1.207h-0.007L442.847,931.19L442.847,931.19z
			 M605.255,920.537c12.76-2.298,32.663-7.063,44.229-10.589l21.022-6.409l-0.288-12.043c-0.249-10.321-0.622-11.007-2.61-4.793
			c-2.242,7.001-2.332,7.022-2.611,0.687c-0.284-6.451-0.478-6.485-11.164-2.018c-25.129,10.506-137.823,22.492-164.467,17.493
			c-8.444-1.583-10.266-3.188-10.266-9.043c0-8.813-2.711-8.937-13.309-0.595c-6.518,5.131-12.024,6.521-25.767,6.516
			c-23.83-0.01-78.257-6.395-97.689-11.454c-8.761-2.28-17.79-4.551-20.061-5.043c-5.195-1.123-7.339,13.794-2.772,19.298
			c4.178,5.034,41.548,14.896,71.145,18.779c12.76,1.674,27.116,3.588,31.9,4.256C442.905,928.414,582.971,924.55,605.255,920.537
			L605.255,920.537L605.255,920.537z M320.05,889.612c0-3.986,0.658-5.619,1.462-3.625c0.804,1.994,0.804,5.256,0,7.251
			C320.708,895.23,320.05,893.598,320.05,889.612z M313.792,889.612c0-6.381-1.305-11.602-2.9-11.602
			c-3.209,0-4.036,18.198-0.967,21.269C313.311,902.667,313.792,901.466,313.792,889.612L313.792,889.612z M584.95,894.206
			c27.333-2.252,60.499-9.76,79.028-17.893c8.375-3.676,15.226-7.146,15.226-7.713c0-0.563-4.569-0.492-10.151,0.158
			c-5.583,0.651-10.148-0.004-10.148-1.457c0-3.763-33.6,0.638-49.302,6.457c-7.177,2.655-25.042,6.279-39.698,8.052
			c-21.525,2.6-26.909,4.217-28.004,8.409c-1.494,5.713-11.994,7.076-15.151,1.968c-1.097-1.772-0.194-4.364,2.003-5.757
			c2.491-1.578-3.958-2.549-17.123-2.575c-19.269-0.04-21.333,0.526-23.549,6.479c-2.337,6.276-1.699,6.581,16.77,7.976
			c10.56,0.8,28.334,0.576,39.5-0.49C555.515,896.753,573.785,895.125,584.95,894.206L584.95,894.206L584.95,894.206z
			 M678.915,893.237c0.563,9.895,6.095,4.906,6.432-5.801c0.345-10.824,0.354-10.834,2.56-2.174
			c2.72,10.691,3.594,2.738,1.078-9.834c-1.461-7.31-2.608-8.459-5.803-5.811c-2.188,1.814-4.069,6.078-4.183,9.473
			c-0.198,6.02-0.265,6.025-2.696,0.367c-1.818-4.238-2.47-1.896-2.407,8.701c0.067,11.438,0.575,12.97,2.407,7.251
			C677.852,890.579,678.722,889.853,678.915,893.237L678.915,893.237z M455.671,890.803c22.639-19.051-0.147-57.927-27.79-47.42
			c-20.104,7.646-25.136,31.228-9.912,46.449C429.08,900.946,443.187,901.307,455.671,890.803L455.671,890.803z M304.233,877.286
			c-0.691-3.589-1.257-0.652-1.257,6.523c0,7.18,0.565,10.115,1.257,6.524C304.925,886.749,304.925,880.875,304.233,877.286z
			 M412.39,890.192c0-1.275-1.195-3.559-2.654-5.075c-1.461-1.517-3.092-6.019-3.625-10.007c-1.151-8.607-9.544-8.479-17.759,0.273
			c-3.991,4.252-9.225,5.525-22.667,5.525c-18.869,0-28.698-3.511-28.698-10.252c0-2.337,1.088-4.249,2.417-4.249
			c1.329,0,2.504-1.63,2.61-3.624c0.108-1.995,0.88-13.086,1.718-24.652c0.838-11.564,0.641-21.008-0.436-20.984
			c-12.017,0.242-14.751,3.721-15.599,19.838c-0.776,14.761-1.543,16.471-7.783,17.354c-8.064,1.142-11.821-3.546-11.884-14.82
			c-0.043-7.825-0.232-7.918-7.019-3.473c-8.382,5.491-12.072,17.639-7.158,23.562c7.315,8.813,28.719,18.696,55.033,25.414
			C375.509,891.812,412.39,894.818,412.39,890.192L412.39,890.192z M487.793,880.74c0-1.5-1.306-2.729-2.9-2.729
			c-1.595,0-2.9,2.037-2.9,4.523s1.305,3.714,2.9,2.729C486.487,884.276,487.793,882.241,487.793,880.74L487.793,880.74z
			 M558.846,878.01c4.959-2.133,5.065-2.521,0.725-2.695c-3.073-0.124-5.076-2.49-5.076-6.006c0-5.451-1.932-5.801-32.239-5.801
			c-32.018,0-32.228,0.047-30.491,6.525c0.962,3.589,1.767,7.503,1.789,8.699C493.608,881.736,551.677,881.091,558.846,878.01
			L558.846,878.01L558.846,878.01z M383.951,872.391c3.929-3.094,10.508-6.467,14.618-7.496c4.11-1.031,8.165-4.522,9.009-7.758
			c1.363-5.207,0.526-5.678-7.338-4.104c-4.881,0.979-10.671,1.775-12.864,1.775c-2.194,0-3.988,2.468-3.988,5.484
			c0,4.879-2.08,5.422-18.748,4.894c-13.061-0.413-19.184,0.538-20.181,3.137C340.581,878.43,372.143,881.678,383.951,872.391
			L383.951,872.391z M350.815,872.714c-2.762-1.095,3.719-2.23,14.402-2.529c12.875-0.357,17.99,0.367,15.171,2.149
			C375.502,875.425,358.217,875.647,350.815,872.714L350.815,872.714z M608.941,867.478c3.357-3.357,2.647-3.968-4.601-3.968
			c-6.188,0-9,1.646-10.117,5.92c-1.297,4.955-0.546,5.602,4.602,3.969C602.207,872.324,606.761,869.662,608.941,867.478
			L608.941,867.478z M578.418,865.772c-4.691-2.266-8.359-2.266-13.05,0c-5.729,2.764-4.934,3.146,6.525,3.146
			C583.352,868.919,584.147,868.536,578.418,865.772z M682.822,858.268c2.791-2.396,4.991-6.438,4.892-8.982
			c-0.106-2.729-1.358-1.683-3.052,2.553c-1.698,4.262-3.688,5.922-4.891,4.079c-1.412-2.161-4.66-1.96-10.728,0.665
			c-7.836,3.393-8.034,3.779-2.003,3.896c4.302,0.084,5.956,1.328,4.627,3.479C669.227,867.912,675.06,864.934,682.822,858.268
			L682.822,858.268z M374.683,835.621v-24.313h-11.601H351.48v24.438c0,26.255,1.241,28.144,16.676,25.363
			C374.311,860.003,374.683,858.553,374.683,835.621z M355.055,822.909c0-5.581,0.596-7.866,1.326-5.074
			c0.729,2.791,0.729,7.36,0,10.151C355.651,830.776,355.055,828.491,355.055,822.909z M481.987,851.621
			c0-9.657-1.854-13.744-9.861-21.752c-8.231-8.229-11.973-9.86-22.646-9.86c-7.032,0-15.075,1.673-17.873,3.718
			c-4.395,3.216-3.537,3.572,6.32,2.633c6.881-0.656,15.059,0.802,20.611,3.673c9.755,5.044,20.519,19.933,20.537,28.403
			c0.007,2.789,0.664,5.072,1.46,5.072C481.333,863.51,481.987,858.159,481.987,851.621L481.987,851.621z M653.095,856.579
			c24.016-5.039,35.061-14.256,29.18-24.346c-2.598-4.455-2.909-4.338-2.988,1.102c-0.206,14.167-12.979,17.85-52.291,15.073
			c-3.987-0.282-35.635-0.263-70.327,0.044c-57.93,0.512-63.079,0.973-63.077,5.633c0.002,4.708,5.406,5.061,74.68,4.852
			C609.341,858.809,647.512,857.749,653.095,856.579L653.095,856.579L653.095,856.579z M407.311,847.149
			c2.79-0.786,5.075-2.46,5.075-3.717c0-1.258-6.525-0.998-14.501,0.58c-7.975,1.574-14.501,4.102-14.501,5.61
			C383.384,852.11,393.354,851.078,407.311,847.149L407.311,847.149z M324.816,835.235c-0.741-11.547-1.822-13.775-6.684-13.775
			c-4.771,0-5.867,2.059-6.175,11.602c-0.454,14.041,0.498,15.953,7.955,15.953C325.008,849.012,325.595,847.363,324.816,835.235
			L324.816,835.235z M565.534,841.035c-0.845-4.366-4.822-5.142-28.489-5.546c-32.288-0.553-43.458,1.152-43.458,6.635
			c0,3.172,7.458,3.988,36.464,3.988C563.22,846.112,566.427,845.653,565.534,841.035z M611.438,842.332
			c2.291-2.29-11.569-5.709-18.051-4.452c-2.786,0.538-5.634,2.689-6.33,4.78c-0.948,2.843,1.746,3.499,10.688,2.604
			C604.321,844.608,610.483,843.288,611.438,842.332L611.438,842.332z M667.369,843.411c2.708-1.714-3.537-2.939-18.199-3.581
			c-18.416-0.8-21.448-0.335-17.342,2.655C637.556,846.659,661.261,847.277,667.369,843.411L667.369,843.411z M401.828,839.219
			c2.775-0.408,7.574-4.896,10.662-9.977l5.616-9.235l-7.932,0.017c-4.364,0.01-12.827,1.375-18.808,3.036
			c-8.516,2.363-10.875,4.46-10.875,9.65c0,8.651,2.374,10.74,10.027,8.817C393.962,840.669,399.053,839.628,401.828,839.219
			L401.828,839.219L401.828,839.219z M621.85,835.645c-1.509-7.891-14.813-15.635-26.858-15.635c-4.653,0-5.876,1.534-5.168,6.486
			c0.717,5.021,3.421,6.89,11.949,8.269c6.063,0.979,12.522,3.281,14.355,5.113C621.46,845.212,623.403,843.773,621.85,835.645
			L621.85,835.645z M584.947,831.61c0-2.553-2.999-4.592-7.25-4.936l-7.25-0.584l7.25,2.472l7.25,2.468l-7.976,0.291
			c-4.387,0.159-7.975,1.68-7.975,3.381s3.588,2.68,7.975,2.174C581.72,836.331,584.947,834.199,584.947,831.61L584.947,831.61z
			 M567.398,826.604c2.53-6.596-1.874-8.406-19.396-7.971c-8.391,0.209-25.371,0.604-37.73,0.877
			c-16.253,0.36-22.476,1.542-22.476,4.268c0,7.958,6.444,9.259,41.648,8.395C559.508,831.434,565.906,830.498,567.398,826.604
			L567.398,826.604z M669.546,830.16c0.571-1.733-6.626-2.899-17.896-2.899c-18.146,0-21.233,1.002-16.789,5.442
			C637.922,835.764,668.439,833.528,669.546,830.16L669.546,830.16z M868.239,844.141c0.506-1.469-9.132-2.536-23.034-3.566
			c-17-2-34.501-7.709-45.125-10.875c-10.038-2.903-21.613-9.436-26-10.125c-4.388-0.689-7.875-1.073-7.875,0.451
			c0,1.523,3.589,3.531,7.977,4.461c4.387,0.927,10.909,4.797,14.898,5.713c8.5,4.25,58.729,17.188,70.462,16.839
			c4.28-0.128,8.196-1.431,8.701-2.896h-0.004V844.141z M915.323,846.5c2.522-0.966,4.588-3.717,4.588-6.108
			c0-2.775-1.66-3.713-4.588-2.59c-2.521,0.967-12.312,1.761-21.75,1.761c-13.323,0-17.164,0.975-17.164,4.351
			c0,3.378,3.841,4.352,17.164,4.352C903.013,848.26,912.802,847.469,915.323,846.5L915.323,846.5z M634.24,820.01
			c4.785-3.17,7.646-5.771,6.354-5.782c-1.291-0.011-11.133-1.382-21.873-3.05c-12.4-1.924-22.13-2.037-26.659-0.312l-7.128,2.717
			l8.699,1.964c4.785,1.08,13.268,3.704,18.852,5.831C625.852,826.469,624.341,826.566,634.24,820.01L634.24,820.01z
			 M642.94,822.909c-0.985-1.593-2.366-2.898-3.071-2.898c-0.703,0-1.278,1.306-1.278,2.898c0,1.598,1.383,2.9,3.071,2.9
			C643.352,825.809,643.926,824.507,642.94,822.909z M476.184,818.559c-1.987-2.392-5.006-4.351-6.71-4.351
			s-0.565,1.917,2.531,4.257C479.28,823.969,480.699,824.001,476.184,818.559L476.184,818.559L476.184,818.559z M581.313,820.989
			c-1.993-0.805-5.257-0.805-7.25,0c-1.994,0.805-0.362,1.463,3.625,1.463S583.307,821.794,581.313,820.989z M763.296,820.18
			c0-1.5-1.305-3.535-2.897-4.521c-1.6-0.986-2.9,0.242-2.9,2.729s1.303,4.521,2.9,4.521
			C761.99,822.909,763.296,821.68,763.296,820.18L763.296,820.18z M859.402,830.872c-4.803-4.076-11.048-5.813-20.907-5.813
			c-20.537,0-69.072-21.827-105.651-31.332c-42.822-11.129-114.01-14.881-129.436-6.82c-12.828,6.703-41.351,6.857-54.504,0.293
			c-6.98-3.482-17.201-4.895-35.442-4.895c-22.491,0-26.076-0.711-29.253-5.799c-4.614-7.389-14.346-7.439-20.979-0.109
			c-7.011,7.748-18.73,10.926-48.675,13.203c-13.957,1.06-25.375,2.824-25.375,3.918c0,1.096,5.081,1.507,11.291,0.915
			c13.502-1.287,49.876,3.987,52.268,7.581c0.931,1.398,5.781,3.939,10.776,5.647c8.212,2.808,9.382,2.449,12.197-3.729
			c4.618-10.135,22.216-13.814,55.404-11.588c42.611,2.858,57.331,2.934,87.173,0.441c30.761-2.568,84.673,3.004,120.354,12.44
			c37.376,9.883,76.782,29.909,107.308,30.836l20.301,0.617L859.402,830.872L859.402,830.872z M413.105,815.214
			c25.154-2.73,19.999-7.154-7.218-6.197c-20.735,0.73-24.033,1.565-24.94,6.312c-0.889,4.649,0.193,5.187,7.218,3.582
			C392.71,817.874,403.934,816.21,413.105,815.214L413.105,815.214z M334.076,811.889c0-2.871,1.217-6.459,2.705-7.976
			c1.677-1.708,1.401-4.45-0.725-7.214c-2.705-3.516-7.414-4.129-22.281-2.9c-23.289,1.926-18.746,6.592,6.419,6.592
			c11.258,0,16.059,0.918,13.5,2.584c-2.182,1.42-10.814,2.349-19.182,2.063c-8.367-0.287-16.102,0.369-17.189,1.455
			c-4.1,4.1,9.732,10.436,22.978,10.523C331.666,817.094,334.076,816.196,334.076,811.889L334.076,811.889z M564.07,810.624
			c-20.811-6.226-58.183-6.699-72.031-0.912c-5.532,2.311-10.056,4.594-10.055,5.075c0.001,0.479,22.259,0.874,49.46,0.874h49.459
			l-16.836-5.037L564.07,810.624L564.07,810.624z M666.141,814.21c0.986-1.596-0.896-2.9-4.181-2.9c-3.283,0-5.971,1.305-5.971,2.9
			c0,1.594,1.88,2.9,4.179,2.9S665.154,815.805,666.141,814.21z M642.214,809.389c-1.994-0.805-5.258-0.805-7.252,0
			c-1.993,0.805-0.363,1.461,3.625,1.461C642.576,810.85,644.207,810.194,642.214,809.389z M707.045,803.396
			c-0.965-0.966-1.65,0.749-1.521,3.806c0.139,3.378,0.823,4.066,1.752,1.752C708.111,806.86,708.008,804.358,707.045,803.396
			L707.045,803.396z M373.23,805.719c3.876-1.525,0.849-2.181-9.124-1.972c-8.209,0.17-14.331,1.289-13.604,2.485
			C352.183,809.005,365.658,808.699,373.23,805.719L373.23,805.719z M443.025,801.964c-7.764-4.346-55.829-4.324-60.183,0.027
			c-3.043,3.042-0.792,3.428,12.178,2.085c8.751-0.905,22.437-0.543,30.414,0.806C442.08,807.695,450.709,806.262,443.025,801.964
			L443.025,801.964L443.025,801.964z M578.902,805.891c1.928-3.121-25.12-8.444-51.241-10.084
			c-15.336-0.965-19.576-0.36-19.576,2.787c0,3.058,5.359,4.064,22.476,4.219c12.362,0.111,25.085,1.324,28.276,2.697
			C566.55,808.823,576.969,809.021,578.902,805.891L578.902,805.891z M699.494,804.401c0-5.078-31.398-8.305-70.625-7.26
			c-22.272,0.594-27.979,1.611-27.979,4.984c0,3.499,4.187,3.977,23.926,2.742c13.162-0.824,33.063-0.568,44.228,0.566
			c11.166,1.135,22.585,2.269,25.376,2.52S699.494,806.605,699.494,804.401L699.494,804.401z M921.869,818.26
			c0.968-0.97,0.146-3.701-1.821-6.076c-4.655-5.608-42.055-5.725-52.349-0.161c-7.486,4.045-6.807,4.827,7.25,8.352
			C882.409,822.244,919.559,820.57,921.869,818.26L921.869,818.26L921.869,818.26z M360.209,796.611c0-1.688-1.305-2.265-2.9-1.279
			c-1.595,0.986-2.9,2.368-2.9,3.072s1.305,1.278,2.9,1.278C358.903,799.682,360.209,798.3,360.209,796.611z M298.157,783.068
			c-0.964-0.963-1.649,0.75-1.522,3.807c0.139,3.38,0.825,4.066,1.751,1.753C299.224,786.533,299.122,784.031,298.157,783.068
			L298.157,783.068z M306.858,783.068c-2.948-2.949-5.381,1.489-2.961,5.405c1.828,2.955,2.51,2.959,3.493,0.011
			C308.06,786.469,307.821,784.031,306.858,783.068L306.858,783.068L306.858,783.068z M322.506,788.083c0-1.596-1.382-2.9-3.071-2.9
			s-2.265,1.306-1.279,2.9c0.986,1.594,2.368,2.9,3.071,2.9C321.931,790.983,322.506,789.677,322.506,788.083z M372.881,787.834
			c16.327-4.534,9.226-8.925-12.738-7.876c-24.099,1.15-27.41,9.396-4.286,10.672C359.048,790.805,366.708,789.548,372.881,787.834z
			 M291.138,781.655c-2.082-2.082-3.432-2.252-3.432-0.436c0,3.871,3.429,7.302,5.364,5.365
			C293.895,785.76,293.025,783.542,291.138,781.655L291.138,781.655z M393.971,777.207c-0.988-5.981-1.812-13.245-1.83-16.143
			c-0.023-4.03-1.906-5.054-8.006-4.351c-11.226,1.291-11.935,11.039-1.614,22.184C393.393,790.637,396.124,790.232,393.971,777.207
			L393.971,777.207z M571.917,783.732c0-2.392-1.306-4.351-2.9-4.351c-1.595,0-2.9,1.957-2.9,4.351c0,2.393,1.305,4.351,2.9,4.351
			C570.611,788.083,571.917,786.125,571.917,783.732z M578.249,781.654c-2.081-2.082-3.432-2.252-3.432-0.435
			c0,3.871,3.43,7.301,5.366,5.363C581.005,785.76,580.136,783.542,578.249,781.654L578.249,781.654z M585.269,780.167
			c-0.963-0.964-1.649,0.75-1.523,3.807c0.139,3.379,0.826,4.065,1.752,1.752C586.336,783.632,586.232,781.132,585.269,780.167
			L585.269,780.167z M553.368,777.266c-0.964-0.963-1.65,0.75-1.523,3.807c0.139,3.378,0.826,4.064,1.752,1.751
			C554.435,780.732,554.332,778.231,553.368,777.266L553.368,777.266z M563.216,782.281c0-1.594-1.304-2.899-2.899-2.899
			c-1.594,0-2.899,1.306-2.899,2.899c0,1.595,1.304,2.899,2.899,2.899C561.912,785.18,563.216,783.876,563.216,782.281z
			 M595.118,782.281c0-1.594-1.382-2.899-3.071-2.899c-1.69,0-2.265,1.306-1.28,2.899c0.987,1.595,2.368,2.899,3.072,2.899
			C594.542,785.18,595.118,783.876,595.118,782.281z M897.454,796.885c-3.589-0.69-9.462-0.69-13.05,0
			c-3.59,0.691-0.651,1.258,6.522,1.258C898.107,798.141,901.044,797.576,897.454,796.885z M854.679,791.478
			c-18.179-5.058-23.536-4.951-10.149,0.204c5.582,2.148,13.414,3.892,17.399,3.869
			C866.271,795.529,863.364,793.895,854.679,791.478L854.679,791.478z M338.265,776.552c9.908-3.767,9.428-10.41-1.015-14.051
			c-9.357-3.264-11.847-2.082-11.847,5.619c0,2.846-2.284,6.502-5.074,8.128c-4.361,2.54-3.979,2.968,2.711,3.044
			C327.322,779.343,334.173,778.108,338.265,776.552L338.265,776.552z M502.25,764.409c-2.18-16.991-9.98-25.63-23.141-25.63
			c-13.083,0-20.666,8.386-22.392,24.765c-1.249,11.853-0.841,13.747,2.315,10.764c2.107-1.993,5.24-7.866,6.96-13.051
			c2.513-7.567,4.509-9.272,10.119-8.64c8.955,1.008,9.806,1.99,10.507,12.129c0.788,11.375,3.235,14.636,10.991,14.636
			C503.823,779.382,504.068,778.591,502.25,764.409L502.25,764.409z M932.314,788.473c28.306-5.195,38.723-11.164,35.764-20.488
			c-1.878-5.918-16.063-13.424-31.811-16.835c-17.399-3.769-64.93-2.022-83.455,3.063c-19.111,5.248-35.526,14.437-33.023,18.484
			c4.271,6.912,27.505,13.93,53.308,16.102c6.943,0.584,13.359,1.797,14.261,2.697C890.212,794.354,906.102,793.285,932.314,788.473
			L932.314,788.473z M586.573,773.951c9.691-0.483,19.677-7.729,15.78-11.448c-1.595-1.523-5.675-3.606-9.066-4.629
			c-4.647-1.4-6.543-0.408-7.704,4.025c-0.846,3.234-3.867,5.881-6.713,5.881c-4.909,0-4.914-0.191-0.114-3.702
			c6.329-4.627,3.445-13.698-4.354-13.698c-7.036,0-10.077,7.412-5.367,13.088c2.917,3.517,2.71,4.313-1.126,4.313
			c-2.772,0-4.706-2.382-4.706-5.799c0-6.768-5.295-7.481-13.112-1.764c-10.214,7.468,3.438,15.998,23.262,14.533
			C576.541,774.514,582.491,774.155,586.573,773.951L586.573,773.951L586.573,773.951z M319.559,766.33
			c0-5.317-1.548-7.251-5.801-7.251c-4.253,0-5.8,1.934-5.8,7.251c0,5.316,1.547,7.25,5.8,7.25
			C318.011,773.58,319.559,771.646,319.559,766.33z M506.662,747.62c-2.339-7.37-12.818-14.615-25.492-17.627
			c-9.211-2.188-9.23-2.227-1.233-2.52c11.999-0.438,25.126,7.526,29.687,18.017c3.566,8.2,4.03,8.472,4.131,2.423
			c0.066-3.992-3.973-10.902-9.747-16.677c-7.964-7.962-12.118-9.86-21.589-9.86c-14.114,0-28.06,10.096-24.993,18.094
			c1.735,4.521,2.545,4.593,8.08,0.717c9.376-6.568,23.183-5.357,31.988,2.803c4.221,3.912,7.674,8.697,7.674,10.633
			c0,1.938,0.772,2.751,1.715,1.809C507.826,754.488,507.727,750.973,506.662,747.62L506.662,747.62L506.662,747.62z
			 M462.322,734.216c2.753-2.884,5.801-4.446,6.773-3.475c0.972,0.973-1.281,3.33-5.005,5.241
			C457.614,739.303,457.536,739.225,462.322,734.216z M299.259,749.109c0-2.332-2.468-3.983-5.601-3.749
			c-3.08,0.232-4.948,1.479-4.149,2.768c0.797,1.291,2.664,1.594,4.149,0.678c1.485-0.918,2.7-0.287,2.7,1.402
			c0,1.688,0.652,3.071,1.451,3.071C298.605,753.279,299.259,751.402,299.259,749.109L299.259,749.109z M307.958,748.928
			c0-2.393-1.304-4.351-2.899-4.351c-1.594,0-2.899,1.958-2.899,4.351s1.304,4.351,2.899,4.351S307.958,751.321,307.958,748.928z
			 M312.61,745.364c-0.962-0.963-1.649,0.749-1.523,3.807c0.139,3.379,0.826,4.065,1.752,1.752
			C313.677,748.829,313.575,746.328,312.61,745.364L312.61,745.364z M321.312,745.364c-0.965-0.963-1.65,0.749-1.524,3.807
			c0.14,3.379,0.827,4.065,1.752,1.752C322.378,748.829,322.274,746.328,321.312,745.364L321.312,745.364z M327.111,745.364
			c-0.964-0.963-1.649,0.749-1.523,3.807c0.139,3.379,0.826,4.065,1.752,1.752C328.178,748.829,328.075,746.328,327.111,745.364
			L327.111,745.364z M383.363,745.857c0-2.487-1.326-3.701-2.948-2.7c-1.621,1.002-2.197,3.036-1.279,4.521
			C381.622,751.701,383.363,750.951,383.363,745.857L383.363,745.857z M566.077,741.69c0-1.596-1.305-2.9-2.9-2.9
			c-1.595,0-2.9,1.305-2.9,2.9c0,1.595,1.305,2.9,2.9,2.9C564.772,744.591,566.077,743.285,566.077,741.69z M574.778,741.69
			c0-1.596-1.305-2.9-2.9-2.9c-1.595,0-2.9,1.305-2.9,2.9c0,1.595,1.305,2.9,2.9,2.9
			C573.473,744.591,574.778,743.285,574.778,741.69z M582.028,741.69c-0.986-1.596-2.368-2.9-3.072-2.9
			c-0.702,0-1.278,1.305-1.278,2.9c0,1.595,1.382,2.9,3.071,2.9S583.014,743.285,582.028,741.69z M330.441,737.188
			c7.861-2.422,2.906-6.773-11.148-9.787c-15.092-3.236-30.178,0.301-30.178,7.077c0,5.331,27.056,7.106,41.328,2.709
			L330.441,737.188L330.441,737.188z M397.515,736.169c2.198-1.393,3.101-3.981,2.004-5.756c-3.376-5.462-33.552-3.033-33.552,2.701
			C365.967,738.072,390.727,740.469,397.515,736.169L397.515,736.169z M595.262,728.419c5.497-6.625-0.972-9.832-19.95-9.886
			c-15.31-0.044-26.634,3.589-26.634,8.545C548.677,733.93,589.707,735.11,595.262,728.419L595.262,728.419z M511.103,720.077
			c-3.662-3.898-10.503-7.933-15.203-8.965c-13.04-2.864-13.122,0.716-0.104,4.616c6.318,1.893,13.229,5.856,15.357,8.81
			c2.128,2.953,4.486,4.752,5.24,3.998C517.146,727.782,514.767,723.975,511.103,720.077L511.103,720.077L511.103,720.077z"/>
	</g>
</g>
<g id="borders" display="none">
	<g display="inline">
		<path d="M795,6v290H5V6H795 M800,1H0v300h800V1L800,1z"/>
	</g>
	<g display="inline">
		<path d="M782.5,18.5v265h-765v-265H782.5 M787.5,13.5h-775v275h775V13.5L787.5,13.5z"/>
	</g>
</g>
<g id="redborders">
	<g id="borders_1_">
		<g>
			<path fill="#D8451F" d="M795,6v290H5V6H795 M800,1H0v300h800V1L800,1z"/>
		</g>
		<g>
			<path fill="#D8451F" d="M782.5,18.5v265h-765v-265H782.5 M787.5,13.5h-775v275h775V13.5L787.5,13.5z"/>
		</g>
	</g>
</g>
</svg>
